    <svg xmlns="http://www.w3.org/2000/svg" viewBox="0 0 120 120">
      <path
        fill="#FB0"
        d="M51.636 53.926a4.099 4.099 0 0 0-4.099 4.099v28.011a4.1 4.1 0 0 1 4.099-4.1h1.954v-28.01h-1.954z"
      />
      <path
        fill="#7CBB00"
        d="M53.59 53.926v28.01h27.117v-28.01H53.59zm22.352 15.051c0 1.04-.844 1.885-1.885 1.885H60.239a1.886 1.886 0 0 1-1.885-1.885v-7.956c0-1.041.844-1.885 1.885-1.885h13.818c1.041 0 1.885.844 1.885 1.885v7.956z"
      />
      <path
        fill="#F65314"
        d="m43.818 86.377-3.797-2.192v1.46H29.029V60.156a.733.733 0 0 0-1.466 0v26.221c0 .404.328.732.733.732h11.726v1.46l3.796-2.192z"
      />
      <g fill="#00A1F1">
        <path d="M61.966 35.888c-1.1-4.367-5.042-7.604-9.75-7.604-5.116 0-9.331 3.82-9.973 8.762a5.555 5.555 0 0 0-3.748-1.453 5.584 5.584 0 0 0-4.859 8.331c-3.041.584-5.34 3.25-5.34 6.46a6.59 6.59 0 0 0 6.589 6.59h7.124c.552-4.675 4.521-8.303 9.345-8.303.665 0 1.311.076 1.935.209a11.212 11.212 0 0 1-.196-2.055c-.001-5.384 3.805-9.876 8.873-10.937zm-12.719 7.031a15.342 15.342 0 0 0-12.28 9.706.734.734 0 0 1-1.369-.526 16.808 16.808 0 0 1 13.454-10.632.724.724 0 0 1 .823.629.73.73 0 0 1-.628.823zM42.841 79.78h-7.949V64.929h1.46l-2.192-3.796-2.192 3.796h1.459v15.584c0 .404.328.732.733.732h8.682a.733.733 0 1 0-.001-1.465z" />
      </g>
      <g fill="#1A171B">
        <path d="M74.037 85.644H53.319a.733.733 0 1 0 0 1.464h20.718a.733.733 0 1 0 0-1.464zM62.263 63.533h9.771a.732.732 0 0 0 0-1.465h-9.771a.733.733 0 0 0 0 1.465zM62.263 67.93h6.84a.733.733 0 0 0 0-1.465h-6.84a.732.732 0 0 0 0 1.465zM70.472 30.195a17.83 17.83 0 0 1 9.742 9.004.733.733 0 1 0 1.322-.632 19.29 19.29 0 0 0-10.54-9.74.732.732 0 1 0-.524 1.368zM63.496 29.026c.925-.032 1.879.013 2.798.126a.733.733 0 1 0 .18-1.454 19.747 19.747 0 0 0-3.026-.137.733.733 0 0 0-.708.757c.012.404.31.708.756.708z" />
        <path d="M85.946 52.523a6.936 6.936 0 0 0 .492-2.559 6.943 6.943 0 0 0-6.935-6.935 6.902 6.902 0 0 0-3.655 1.048c-1.253-5.302-6.031-9.163-11.579-9.163-.609 0-1.203.061-1.788.149-1.396-4.349-5.46-7.513-10.266-7.513-4.996 0-9.305 3.454-10.476 8.21a6.288 6.288 0 0 0-3.244-.902 6.325 6.325 0 0 0-6.318 6.318c0 .772.144 1.539.42 2.259a7.324 7.324 0 0 0-5.034 6.948c0 4.037 3.284 7.321 7.321 7.321h6.339c-.004.128-.02.253-.02.382 0 3.958 2.285 7.378 5.601 9.046v19.585a4.838 4.838 0 0 0 4.832 4.833h28.985a.729.729 0 0 0 .627-.356.73.73 0 0 0 .02-.721c-1.619-3.041-1.599-5.032.086-8.195a.66.66 0 0 0 .086-.343V68.237h2.074c4.438 0 8.05-3.61 8.05-8.049a8.055 8.055 0 0 0-5.618-7.665zM34.885 56.24a5.862 5.862 0 0 1-5.855-5.855 5.853 5.853 0 0 1 4.745-5.741.729.729 0 0 0 .526-.413.728.728 0 0 0-.027-.667 4.857 4.857 0 0 1-.63-2.386 4.858 4.858 0 0 1 4.853-4.853c1.202 0 2.357.448 3.255 1.264a.733.733 0 0 0 1.22-.448c.601-4.631 4.575-8.123 9.245-8.123 4.103 0 7.581 2.667 8.828 6.354-5.004 1.411-8.686 6.006-8.686 11.454 0 .388.02.777.061 1.173-5.434-.608-10.103 3.184-11.035 8.242h-6.5zm44.562 33.846H51.636a3.371 3.371 0 0 1-3.366-3.367v-.684a3.371 3.371 0 0 1 3.366-3.366h27.893c-1.206 2.681-1.23 4.814-.082 7.417zm-31.178-7.515V58.024a3.37 3.37 0 0 1 3.366-3.366h1.222v26.545h-1.222a4.82 4.82 0 0 0-3.366 1.368zm31.705-1.368h-25.65V54.658h25.65v26.545zm3.54-14.431H81.44V53.926a.733.733 0 0 0-.733-.733h-29.07a4.838 4.838 0 0 0-4.832 4.832v7.424c-2.473-1.528-4.135-4.245-4.135-7.36 0-4.788 3.896-8.684 8.685-8.684.579 0 1.18.065 1.783.193a.732.732 0 0 0 .872-.85 10.386 10.386 0 0 1-.185-1.921c0-5.76 4.686-10.444 10.445-10.444 5.227 0 9.674 3.908 10.346 9.091a.733.733 0 0 0 1.219.448 5.451 5.451 0 0 1 3.67-1.424 5.475 5.475 0 0 1 5.469 5.469c0 .938-.245 1.867-.71 2.687a.732.732 0 0 0 .499 1.081 6.585 6.585 0 0 1 5.336 6.456c-.001 3.627-2.955 6.581-6.585 6.581z" />
        <path d="M69.54 43.446a.734.734 0 0 0-.335.981c.377.77.568 1.599.568 2.466a.732.732 0 0 0 1.465 0 7.015 7.015 0 0 0-.718-3.111.733.733 0 0 0-.98-.336zM66.983 40.395a7.09 7.09 0 0 0-9.299 9.385.733.733 0 1 0 1.338-.597 5.625 5.625 0 0 1 7.377-7.444.733.733 0 0 0 .584-1.344zM90.83 75.994a.733.733 0 0 0-.732.733v14.091a.733.733 0 1 0 1.465 0V76.727a.733.733 0 0 0-.733-.733zM90.83 69.269a.732.732 0 0 0-.732.732v2.816a.733.733 0 1 0 1.465 0v-2.816a.733.733 0 0 0-.733-.732zM85.944 72.2a.733.733 0 0 0-.733.733v11.159a.733.733 0 0 0 1.465 0V72.933a.731.731 0 0 0-.732-.733zM85.944 87.269a.733.733 0 0 0-.733.732v2.816a.733.733 0 1 0 1.465 0v-2.816a.731.731 0 0 0-.732-.732z" />
      </g>
    </svg>
